<?xml version="1.0" encoding="UTF-8"?>
<svg width="16px" height="16px" viewBox="0 0 512 512" version="1.1" xmlns="http://www.w3.org/2000/svg" preserveAspectRatio="xMidYMid meet">
<g transform="translate(0,512) scale(0.1,-0.1)" fill="#ffffff" stroke="none">
<path d="M2484 4721 c-17 -4 -44 -15 -60 -24 -16 -9 -94 -47 -174 -86 -139
-68 -394 -213 -429 -245 -9 -8 -32 -22 -51 -31 -19 -9 -54 -28 -77 -43 -23
-15 -100 -63 -172 -107 -72 -44 -150 -92 -174 -107 -23 -15 -78 -48 -122 -74
-149 -88 -220 -136 -273 -188 -71 -68 -139 -158 -171 -225 l-26 -56 -3 -872
c-3 -932 -3 -931 47 -1063 32 -86 100 -179 173 -240 36 -30 182 -124 325 -209
142 -85 389 -233 548 -329 413 -248 548 -311 715 -330 151 -18 332 27 480 119
72 45 613 370 855 514 138 81 275 164 305 183 77 50 152 123 199 196 80 122
75 52 78 1070 4 889 3 910 -17 990 -13 51 -33 99 -55 131 -48 70 -141 162
-195 192 -25 14 -61 36 -80 48 -19 12 -87 53 -150 90 -63 38 -151 92 -195 120
-44 29 -100 63 -125 77 -25 14 -76 45 -115 70 -38 25 -90 55 -115 69 -25 13
-54 31 -65 39 -29 24 -176 107 -202 115 -13 3 -23 10 -23 13 0 4 -37 27 -82
51 -46 23 -90 47 -98 52 -8 5 -55 28 -105 51 -88 41 -91 42 -215 44 -69 2
-139 -1 -156 -5z m-117 -1156 c37 -32 77 -68 88 -80 11 -12 103 -95 205 -185
350 -310 612 -553 631 -584 38 -63 30 -80 -94 -201 -62 -60 -174 -164 -248
-230 -74 -66 -179 -160 -235 -210 -55 -49 -118 -105 -140 -124 -21 -19 -86
-78 -144 -131 -132 -120 -146 -130 -193 -130 -30 0 -46 7 -69 30 l-30 31 4
147 c5 202 5 203 211 385 287 253 321 283 372 321 28 21 51 39 53 41 1 1 -60
57 -137 124 -232 201 -400 357 -445 411 -50 61 -56 87 -56 245 l0 147 30 30
c28 28 36 30 80 26 43 -4 59 -13 117 -63z"/>
</g>
</svg>
